<?xml version="1.0" encoding="UTF-8" standalone="no"?>
<svg
   xmlns:dc="http://purl.org/dc/elements/1.1/"
   xmlns:cc="http://creativecommons.org/ns#"
   xmlns:rdf="http://www.w3.org/1999/02/22-rdf-syntax-ns#"
   xmlns:svg="http://www.w3.org/2000/svg"
   xmlns="http://www.w3.org/2000/svg"
   width="8in"
   height="9in"
   viewBox="0 0 576 648"
   version="1.2"
   id="svg950">
  <metadata
     id="metadata956">
    <rdf:RDF>
      <cc:Work
         rdf:about="">
        <dc:format>image/svg+xml</dc:format>
        <dc:type
           rdf:resource="http://purl.org/dc/dcmitype/StillImage" />
        <dc:title></dc:title>
      </cc:Work>
    </rdf:RDF>
  </metadata>
  <defs
     id="defs954">
    <marker
       style="overflow:visible"
       id="Arrow1Lstart"
       refX="0.0"
       refY="0.0"
       orient="auto">
      <path
         transform="scale(0.8) translate(12.5,0)"
         style="fill-rule:evenodd;stroke:#ff00ff;stroke-width:1pt;stroke-opacity:1;fill:#800080;fill-opacity:1"
         d="M 0.0,0.0 L 5.0,-5.0 L -12.5,0.0 L 5.0,5.0 L 0.0,0.0 z "
         id="path850" />
    </marker>
  </defs>
  <text
     style="line-height:1.25"
     x="65.92485"
     y="587.93103"
     font-weight="400"
     font-size="30px"
     font-family="sans-serif"
     letter-spacing="3.233"
     word-spacing="0"
     stroke-width="0.75"
     id="text948"><tspan
       x="65.92485"
       y="587.93103"
       style="-inkscape-font-specification:'Open Sans Bold'"
       font-weight="700"
       font-size="72px"
       font-family="'Open Sans'"
       id="tspan946">free<tspan
   style="line-height:1.25;-inkscape-font-specification:'Open Sans'"
   font-weight="400"
   word-spacing="1.845"
   id="tspan944">connect</tspan></tspan></text>
  <g
     id="g1303"
     transform="matrix(0.62189022,-0.41922852,0.41922852,0.62189022,-107.04939,84.972306)">
    <g
       id="g1246">
	<g
   id="g1244">
		<path
   id="path1314"
   style="fill:#800080;stroke:#c25bff;stroke-width:20.5;stroke-miterlimit:4;stroke-dasharray:none;stroke-opacity:1"
   d="M 465.10107,252.38641 C 364.77025,182.65849 222.79921,182.76583 122.16261,251.80212 20.884785,317.97748 -33.200019,447.50685 -8.4730328,566.02021 12.943758,684.41921 110.55715,783.78975 228.39406,807.76629 c 40.93813,9.62022 97.07253,7.36275 112.62666,3.94827 -34.05183,-14.44333 -54.74676,-44.46947 -56.9237,-84.55391 -1.25839,-17.28478 -0.2751,-34.68592 -0.58737,-52.01981 -53.93672,-9.73164 -89.55741,-64.38371 -88.70713,-116.91949 0.59311,-16.73256 -1.73681,-10.17283 1.59619,-43.15204 0.88036,-20.2169 27.42232,-15.1471 40.9835,-16.90284 1.0055,-25.90868 -2.32821,-81.27427 1.60769,-106.79325 4.28544,-30.2709 39.24267,-21.77204 38.23898,4.76294 -1e-5,19.86729 1.25315,82.16418 1.25315,102.03146 l 54.10565,-7.5e-4 c 1.00514,-25.91284 -0.80648,-71.74795 0.43568,-98.02121 3.40766,-33.38785 41.55204,-35.82549 41.01365,1.39288 0.68391,29.92486 -0.43564,76.76067 -0.43564,96.62796 14.47911,1.63169 38.43468,-6.52207 41.36039,14.22013 -0.94613,41.26505 6.39484,87.16806 -22.19869,121.57687 -14.16085,24.0051 -46.51413,33.35774 -65.37792,44.77094 1.60488,29.34925 -7.22678,64.37699 18.38285,86.17184 26.18018,25.29271 62.64259,23.09564 94.904,12.12989 C 549.1343,719.63983 614.48363,592.71087 598.54185,471.1165 588.56335,383.30604 538.61981,301.43637 465.10107,252.38641 Z" />

	</g>

</g>
    <g
       id="g1248">
</g>
    <g
       id="g1250">
</g>
    <g
       id="g1252">
</g>
    <g
       id="g1254">
</g>
    <g
       id="g1256">
</g>
    <g
       id="g1258">
</g>
    <g
       id="g1260">
</g>
    <g
       id="g1262">
</g>
    <g
       id="g1264">
</g>
    <g
       id="g1266">
</g>
    <g
       id="g1268">
</g>
    <g
       id="g1270">
</g>
    <g
       id="g1272">
</g>
    <g
       id="g1274">
</g>
    <g
       id="g1276">
</g>
  </g>
</svg>
